<svg width="24" height="24" viewBox="0 0 24 24" fill="none" xmlns="http://www.w3.org/2000/svg">
<path d="M10.5 16.75L17.725 9.525L16.3 8.1L10.5 13.9L7.625 11.025L6.225 12.45L10.5 16.75ZM12 22.35C10.5833 22.35 9.24583 22.0792 7.9875 21.5375C6.72917 20.9958 5.62917 20.2542 4.6875 19.3125C3.74583 18.3708 3.00417 17.275 2.4625 16.025C1.92083 14.775 1.65 13.4333 1.65 12C1.65 10.5667 1.92083 9.22083 2.4625 7.9625C3.00417 6.70417 3.74167 5.60833 4.675 4.675C5.60833 3.74167 6.70417 3 7.9625 2.45C9.22083 1.9 10.5667 1.625 12 1.625C13.4333 1.625 14.7833 1.9 16.05 2.45C17.3167 3 18.4125 3.7375 19.3375 4.6625C20.2625 5.5875 21 6.67917 21.55 7.9375C22.1 9.19583 22.375 10.55 22.375 12C22.375 13.4333 22.1 14.7792 21.55 16.0375C21 17.2958 20.2583 18.3917 19.325 19.325C18.3917 20.2583 17.3 20.9958 16.05 21.5375C14.8 22.0792 13.45 22.35 12 22.35ZM12 20.375C14.3333 20.375 16.3125 19.5583 17.9375 17.925C19.5625 16.2917 20.375 14.3167 20.375 12C20.375 9.66667 19.5625 7.6875 17.9375 6.0625C16.3125 4.4375 14.3333 3.625 12 3.625C9.68333 3.625 7.70833 4.4375 6.075 6.0625C4.44167 7.6875 3.625 9.66667 3.625 12C3.625 14.3167 4.44167 16.2917 6.075 17.925C7.70833 19.5583 9.68333 20.375 12 20.375Z" fill="#66BB6A"/>
</svg>
