<svg width="100" height="100" viewBox="0 0 100 100" fill="none" xmlns="http://www.w3.org/2000/svg">
<rect width="100" height="100" rx="22" fill="url(#paint0_linear_123_158)"/>
<path d="M55.5 53.9167C52.7222 53.9167 50.3611 52.9445 48.4167 51C46.4722 49.0556 45.5 46.6945 45.5 43.9167C45.5 41.1389 46.4722 38.7778 48.4167 36.8334C50.3611 34.8889 52.7222 33.9167 55.5 33.9167C58.2778 33.9167 60.6389 34.8889 62.5833 36.8334C64.5278 38.7778 65.5 41.1389 65.5 43.9167C65.5 46.6945 64.5278 49.0556 62.5833 51C60.6389 52.9445 58.2778 53.9167 55.5 53.9167ZM30 66.6667C28.1667 66.6667 26.5972 66.0139 25.2917 64.7084C23.9861 63.4028 23.3333 61.8334 23.3333 60V27.8334C23.3333 26 23.9861 24.4306 25.2917 23.125C26.5972 21.8195 28.1667 21.1667 30 21.1667H81.1667C82.9445 21.1667 84.4861 21.8195 85.7917 23.125C87.0972 24.4306 87.75 26 87.75 27.8334V60C87.75 61.8334 87.0972 63.4028 85.7917 64.7084C84.4861 66.0139 82.9445 66.6667 81.1667 66.6667H30ZM37.75 60.5834H73.3333C73.3333 58.25 74.1389 56.2778 75.75 54.6667C77.3611 53.0556 79.3333 52.25 81.6667 52.25V35.5834C79.3333 35.5834 77.3611 34.7639 75.75 33.125C74.1389 31.4861 73.3333 29.5278 73.3333 27.25H37.75C37.75 29.5278 36.9444 31.4861 35.3333 33.125C33.7222 34.7639 31.75 35.5834 29.4167 35.5834V52.25C31.75 52.25 33.7222 53.0556 35.3333 54.6667C36.9444 56.2778 37.75 58.25 37.75 60.5834ZM76.6667 77.75H18.8333C17.0556 77.75 15.5139 77.0972 14.2083 75.7917C12.9028 74.4861 12.25 72.9445 12.25 71.1667V33.3334H18.8333V71.1667H76.6667V77.75Z" fill="white"/>
<defs>
<linearGradient id="paint0_linear_123_158" x1="-29.5" y1="-29.5" x2="118.5" y2="114" gradientUnits="userSpaceOnUse">
<stop stop-color="#8802F9"/>
<stop offset="1" stop-color="#F902EF"/>
</linearGradient>
</defs>
</svg>
