<svg width="100" height="100" viewBox="0 0 100 100" fill="none" xmlns="http://www.w3.org/2000/svg">
<rect width="100" height="100" rx="22" fill="url(#paint0_linear_123_157)"/>
<path d="M50.25 81.1667C45.9722 81.1667 41.9167 80.3472 38.0833 78.7083C34.25 77.0694 30.9167 74.8333 28.0833 72C25.25 69.1667 23 65.8472 21.3333 62.0417C19.6667 58.2361 18.8333 54.1667 18.8333 49.8333C18.8333 45.5 19.6667 41.4583 21.3333 37.7083C23 33.9583 25.25 30.6806 28.0833 27.875C30.9167 25.0694 34.25 22.8472 38.0833 21.2083C41.9167 19.5694 46 18.75 50.3333 18.75C54.7778 18.75 59 19.7083 63 21.625C67 23.5417 70.5278 26.1667 73.5833 29.5V21.1667H79.0833V39.4167H60.6667V33.8333H68.5C66.1111 31.2778 63.3472 29.2361 60.2083 27.7083C57.0695 26.1806 53.7778 25.4167 50.3333 25.4167C43.4445 25.4167 37.5833 27.75 32.75 32.4167C27.9167 37.0833 25.5 42.8056 25.5 49.5833C25.5 56.5278 27.9028 62.4306 32.7083 67.2917C37.5139 72.1528 43.3889 74.5833 50.3333 74.5833C57.1111 74.5833 62.8472 72.1806 67.5417 67.375C72.2361 62.5694 74.5833 56.75 74.5833 49.9167H81.25C81.25 58.5833 78.25 65.9583 72.25 72.0417C66.25 78.125 58.9167 81.1667 50.25 81.1667ZM60.1667 63.8333L47.3333 51.1667V33.0833H52.8333V48.8333L64.1667 59.8333L60.1667 63.8333Z" fill="white"/>
<defs>
<linearGradient id="paint0_linear_123_157" x1="10" y1="-14" x2="131.5" y2="169" gradientUnits="userSpaceOnUse">
<stop stop-color="#F90273"/>
<stop offset="1" stop-color="#8802F9"/>
</linearGradient>
</defs>
</svg>
