<svg width="100" height="100" viewBox="0 0 100 100" fill="none" xmlns="http://www.w3.org/2000/svg">
<rect width="100" height="100" rx="22" fill="url(#paint0_linear_123_159)"/>
<path d="M48.6667 12.5C54.1111 12.5 58.75 14.3889 62.5833 18.1667C66.4167 21.9444 68.3333 26.5556 68.3333 32C68.3333 35.0556 67.7222 37.8472 66.5 40.375C65.2778 42.9028 63.6111 45.0833 61.5 46.9167H57.5V43.0833C59.2222 41.75 60.5278 40.125 61.4167 38.2083C62.3056 36.2917 62.75 34.25 62.75 32.0833C62.75 28.1389 61.375 24.8194 58.625 22.125C55.875 19.4306 52.5278 18.0833 48.5833 18.0833C44.6944 18.0833 41.375 19.4167 38.625 22.0833C35.875 24.75 34.5 28.0556 34.5 32C34.5 34.2222 34.9444 36.2917 35.8333 38.2083C36.7222 40.125 38.0278 41.7778 39.75 43.1667V49.75C36.3611 48.0833 33.7083 45.6667 31.7917 42.5C29.875 39.3333 28.9167 35.8333 28.9167 32C28.9167 26.5556 30.8333 21.9444 34.6667 18.1667C38.5 14.3889 43.1667 12.5 48.6667 12.5ZM45.4167 84.4167C44.4167 84.4167 43.4722 84.2222 42.5833 83.8333C41.6944 83.4444 40.9167 82.9167 40.25 82.25L22.6667 64.6667L27.75 59.5C28.5833 58.6667 29.5278 58.0417 30.5833 57.625C31.6389 57.2083 32.7222 57.1389 33.8333 57.4167L39.75 58.75V32.1667C39.75 29.7222 40.6111 27.6389 42.3333 25.9167C44.0556 24.1944 46.1389 23.3333 48.5833 23.3333C51.0833 23.3333 53.1945 24.1944 54.9167 25.9167C56.6389 27.6389 57.5 29.7222 57.5 32.1667V46H59.0833C59.4167 46 59.7222 46.0556 60 46.1667C60.2778 46.2778 60.5833 46.4167 60.9167 46.5833L73.1667 52.5833C74.6111 53.25 75.6806 54.3056 76.375 55.75C77.0695 57.1944 77.2778 58.6944 77 60.25L74 78.4167C73.7222 80.1944 72.8889 81.6389 71.5 82.75C70.1111 83.8611 68.5278 84.4167 66.75 84.4167H45.4167ZM44.75 78.8333H68.1667L71.75 58.0833L56.5 50.5H51.9167V32.1667C51.9167 31.1667 51.6111 30.3611 51 29.75C50.3889 29.1389 49.5833 28.8333 48.5833 28.8333C47.5833 28.8333 46.7778 29.1389 46.1667 29.75C45.5556 30.3611 45.25 31.1667 45.25 32.1667V65.4167L32.4167 62.6667L30.5 64.5833L44.75 78.8333Z" fill="white"/>
<defs>
<linearGradient id="paint0_linear_123_159" x1="-19" y1="-14" x2="107.5" y2="129" gradientUnits="userSpaceOnUse">
<stop stop-color="#F902EF"/>
<stop offset="1" stop-color="#00DB93"/>
</linearGradient>
</defs>
</svg>
