<svg width="345" height="69" viewBox="0 0 345 69" fill="none" xmlns="http://www.w3.org/2000/svg">
<path d="M4.22934 6.69128C3.50655 6.28647 2.59245 6.54424 2.18764 7.26703C1.78284 7.98982 2.04061 8.90392 2.7634 9.30872L4.22934 6.69128ZM342.943 11.3967C343.162 10.5978 342.692 9.77253 341.893 9.55342L328.874 5.98279C328.075 5.76368 327.25 6.23371 327.031 7.03263C326.811 7.83156 327.281 8.65684 328.08 8.87595L339.653 12.0498L336.479 23.6225C336.26 24.4214 336.73 25.2467 337.529 25.4658C338.328 25.6849 339.153 25.2149 339.372 24.416L342.943 11.3967ZM8.0768 12.2623C8.80219 12.6624 9.7146 12.3987 10.1147 11.6733C10.5149 10.9479 10.2512 10.0355 9.52579 9.6354L8.0768 12.2623ZM20.0389 15.3409C19.308 14.951 18.3993 15.2274 18.0094 15.9583C17.6194 16.6892 17.8958 17.5978 18.6267 17.9878L20.0389 15.3409ZM29.2548 23.5532C29.9918 23.9316 30.896 23.6409 31.2744 22.904C31.6528 22.167 31.3621 21.2628 30.6252 20.8844L29.2548 23.5532ZM41.3187 26.258C40.5751 25.8927 39.6763 26.1994 39.311 26.943C38.9458 27.6866 39.2525 28.5855 39.9961 28.9507L41.3187 26.258ZM50.8638 34.1564C51.6146 34.5066 52.5071 34.1819 52.8573 33.4311C53.2075 32.6804 52.8827 31.7879 52.132 31.4377L50.8638 34.1564ZM63.0411 36.3792C62.2825 36.0462 61.3976 36.3911 61.0646 37.1496C60.7315 37.9081 61.0764 38.7931 61.835 39.1261L63.0411 36.3792ZM72.9209 43.8289C73.6877 44.1424 74.5635 43.7749 74.877 43.0081C75.1906 42.2413 74.8231 41.3655 74.0563 41.052L72.9209 43.8289ZM85.1858 45.4202C84.4103 45.1289 83.5454 45.5214 83.2541 46.2969C82.9628 47.0725 83.3554 47.9373 84.1309 48.2286L85.1858 45.4202ZM95.4713 52.2841C96.2559 52.5502 97.1076 52.1299 97.3736 51.3453C97.6397 50.5608 97.2194 49.7091 96.4348 49.443L95.4713 52.2841ZM107.805 53.0754C107.012 52.8378 106.176 53.2887 105.938 54.0823C105.701 54.876 106.152 55.7119 106.945 55.9494L107.805 53.0754ZM118.556 59.1758C119.358 59.3812 120.176 58.8972 120.381 58.0947C120.586 57.2921 120.102 56.475 119.3 56.2695L118.556 59.1758ZM130.938 58.9799C130.127 58.8102 129.332 59.3299 129.162 60.1408C128.993 60.9516 129.512 61.7465 130.323 61.9162L130.938 58.9799ZM142.203 64.1092C143.021 64.2397 143.79 63.6823 143.92 62.8642C144.051 62.0461 143.493 61.2771 142.675 61.1466L142.203 64.1092ZM154.492 62.7233C153.669 62.6351 152.929 63.2315 152.841 64.0552C152.753 64.8789 153.349 65.6181 154.173 65.7063L154.492 62.7233ZM166.209 66.667C167.037 66.7103 167.742 66.0748 167.786 65.2475C167.829 64.4202 167.194 63.7145 166.366 63.6711L166.209 66.667ZM178.272 63.9626C177.443 63.9655 176.774 64.6395 176.777 65.4679C176.78 66.2964 177.454 66.9655 178.283 66.9626L178.272 63.9626ZM190.362 66.5784C191.189 66.5288 191.819 65.8182 191.769 64.9912C191.719 64.1643 191.009 63.5342 190.182 63.5838L190.362 66.5784ZM202.049 62.5385C201.226 62.6339 200.636 63.3784 200.732 64.2013C200.827 65.0242 201.572 65.6139 202.395 65.5185L202.049 62.5385ZM214.352 63.8034C215.168 63.6641 215.718 62.8891 215.578 62.0725C215.439 61.2559 214.664 60.7068 213.847 60.8461L214.352 63.8034ZM225.555 58.5398C224.747 58.7201 224.238 59.5218 224.418 60.3303C224.598 61.1389 225.4 61.6482 226.208 61.4679L225.555 58.5398ZM237.917 58.5647C238.716 58.3469 239.187 57.5224 238.97 56.7232C238.752 55.9239 237.927 55.4525 237.128 55.6703L237.917 58.5647ZM248.564 52.2877C247.775 52.5392 247.339 53.3829 247.59 54.1723C247.842 54.9616 248.686 55.3976 249.475 55.1461L248.564 52.2877ZM260.885 51.2655C261.664 50.9842 262.068 50.1244 261.786 49.3452C261.505 48.5661 260.645 48.1625 259.866 48.4439L260.885 51.2655ZM271.032 44.192C270.263 44.4996 269.889 45.3726 270.196 46.1418C270.504 46.911 271.377 47.2852 272.146 46.9775L271.032 44.192ZM283.262 42.3343C284.021 42.0038 284.369 41.1201 284.039 40.3604C283.708 39.6008 282.825 39.2528 282.065 39.5833L283.262 42.3343ZM292.97 34.665C292.219 35.0152 291.895 35.9077 292.245 36.6585C292.595 37.4092 293.488 37.7339 294.238 37.3837L292.97 34.665ZM305.085 32.1687C305.827 31.8014 306.132 30.9018 305.764 30.1592C305.397 29.4166 304.497 29.1124 303.755 29.4796L305.085 32.1687ZM314.429 24.0649C313.694 24.4468 313.407 25.3523 313.789 26.0875C314.171 26.8226 315.077 27.109 315.812 26.7271L314.429 24.0649ZM326.432 21.0911C327.16 20.6967 327.431 19.7864 327.037 19.0579C326.642 18.3294 325.732 18.0586 325.003 18.453L326.432 21.0911ZM335.49 12.6715C334.768 13.0767 334.511 13.9909 334.916 14.7135C335.321 15.4361 336.235 15.6934 336.958 15.2882L335.49 12.6715ZM2.7634 9.30872C4.5451 10.3066 6.31615 11.2911 8.0768 12.2623L9.52579 9.6354C7.77092 8.66741 6.00552 7.68605 4.22934 6.69128L2.7634 9.30872ZM18.6267 17.9878C22.2118 19.9004 25.7537 21.7555 29.2548 23.5532L30.6252 20.8844C27.1387 19.0942 23.6106 17.2465 20.0389 15.3409L18.6267 17.9878ZM39.9961 28.9507C43.6621 30.7514 47.2838 32.4865 50.8638 34.1564L52.132 31.4377C48.571 29.7766 44.9675 28.0502 41.3187 26.258L39.9961 28.9507ZM61.835 39.1261C65.5735 40.7677 69.2678 42.3351 72.9209 43.8289L74.0563 41.052C70.4279 39.5684 66.7572 38.011 63.0411 36.3792L61.835 39.1261ZM84.1309 48.2286C87.9528 49.6642 91.7316 51.0159 95.4713 52.2841L96.4348 49.443C92.7269 48.1856 88.9786 46.8449 85.1858 45.4202L84.1309 48.2286ZM106.945 55.9494C110.854 57.119 114.722 58.1943 118.556 59.1758L119.3 56.2695C115.506 55.2983 111.677 54.2339 107.805 53.0754L106.945 55.9494ZM130.323 61.9162C134.315 62.7516 138.273 63.4824 142.203 64.1092L142.675 61.1466C138.794 60.5276 134.883 59.8057 130.938 58.9799L130.323 61.9162ZM154.173 65.7063C158.207 66.1378 162.217 66.4578 166.209 66.667L166.366 63.6711C162.429 63.4648 158.473 63.1492 154.492 62.7233L154.173 65.7063ZM178.283 66.9626C182.318 66.9481 186.342 66.8198 190.362 66.5784L190.182 63.5838C186.219 63.8218 182.251 63.9484 178.272 63.9626L178.283 66.9626ZM202.395 65.5185C206.376 65.0565 210.36 64.4844 214.352 63.8034L213.847 60.8461C209.907 61.5184 205.977 62.0827 202.049 62.5385L202.395 65.5185ZM226.208 61.4679C230.095 60.601 233.996 59.633 237.917 58.5647L237.128 55.6703C233.251 56.7267 229.395 57.6834 225.555 58.5398L226.208 61.4679ZM249.475 55.1461C253.253 53.9425 257.055 52.6486 260.885 51.2655L259.866 48.4439C256.07 49.8146 252.305 51.0961 248.564 52.2877L249.475 55.1461ZM272.146 46.9775C275.82 45.5085 279.523 43.9605 283.262 42.3343L282.065 39.5833C278.353 41.1982 274.677 42.7346 271.032 44.192L272.146 46.9775ZM294.238 37.3837C297.818 35.7137 301.432 33.9752 305.085 32.1687L303.755 29.4796C300.122 31.2765 296.528 33.0051 292.97 34.665L294.238 37.3837ZM315.812 26.7271C319.314 24.9077 322.853 23.0289 326.432 21.0911L325.003 18.453C321.439 20.3832 317.915 22.2539 314.429 24.0649L315.812 26.7271ZM336.958 15.2882C338.708 14.3067 340.468 13.3117 342.239 12.3034L340.754 9.69658C338.989 10.7017 337.235 11.6933 335.49 12.6715L336.958 15.2882ZM4.9623 5.38255C3.51673 4.57294 1.68854 5.08849 0.878921 6.53406C0.0693068 7.97964 0.584856 9.80783 2.03043 10.6174L4.9623 5.38255ZM344.39 11.7935C344.828 10.1956 343.888 8.54506 342.29 8.10684L316.251 0.965576C314.654 0.527352 313.003 1.46742 312.565 3.06527C312.127 4.66312 313.067 6.31368 314.664 6.7519L337.81 13.0997L331.462 36.245C331.024 37.8429 331.964 39.4934 333.562 39.9316C335.16 40.3699 336.81 39.4298 337.248 37.832L344.39 11.7935ZM7.35231 13.5757C8.80309 14.376 10.6279 13.8486 11.4282 12.3978C12.2284 10.947 11.7011 9.12221 10.2503 8.32196L7.35231 13.5757ZM20.745 14.0175C19.2831 13.2376 17.4659 13.7904 16.686 15.2522C15.906 16.714 16.4588 18.5313 17.9207 19.3112L20.745 14.0175ZM28.5697 24.8876C30.0436 25.6444 31.852 25.063 32.6088 23.5891C33.3656 22.1152 32.7842 20.3069 31.3103 19.5501L28.5697 24.8876ZM41.98 24.9116C40.4929 24.1812 38.6951 24.7946 37.9647 26.2817C37.2342 27.7688 37.8476 29.5666 39.3348 30.297L41.98 24.9116ZM50.2297 35.5158C51.7312 36.2162 53.5163 35.5668 54.2167 34.0652C54.917 32.5637 54.2676 30.7787 52.7661 30.0783L50.2297 35.5158ZM63.6441 35.0058C62.1271 34.3397 60.3573 35.0295 59.6911 36.5466C59.025 38.0636 59.7148 39.8334 61.2319 40.4995L63.6441 35.0058ZM72.3532 45.2173C73.8868 45.8443 75.6384 45.1094 76.2655 43.5758C76.8925 42.0422 76.1576 40.2907 74.624 39.6636L72.3532 45.2173ZM85.7132 44.016C84.1622 43.4334 82.4325 44.2184 81.8499 45.7695C81.2673 47.3205 82.0524 49.0502 83.6034 49.6328L85.7132 44.016ZM94.9896 53.7047C96.5587 54.2368 98.262 53.3961 98.7941 51.8271C99.3263 50.258 98.4856 48.5546 96.9166 48.0225L94.9896 53.7047ZM108.235 51.6383C106.648 51.1633 104.976 52.065 104.501 53.6523C104.026 55.2395 104.928 56.9114 106.515 57.3864L108.235 51.6383ZM118.184 60.6289C119.789 61.0398 121.423 60.0718 121.834 58.4667C122.245 56.8616 121.277 55.2273 119.672 54.8164L118.184 60.6289ZM131.245 57.5117C129.623 57.1723 128.034 58.2118 127.694 59.8335C127.355 61.4552 128.394 63.045 130.016 63.3844L131.245 57.5117ZM141.966 65.5905C143.603 65.8514 145.14 64.7366 145.401 63.1004C145.662 61.4643 144.548 59.9263 142.911 59.6654L141.966 65.5905ZM154.652 61.2318C153.004 61.0555 151.526 62.2482 151.35 63.8956C151.173 65.5431 152.366 67.0215 154.014 67.1977L154.652 61.2318ZM166.131 68.1649C167.785 68.2516 169.197 66.9806 169.284 65.326C169.37 63.6714 168.099 62.2598 166.445 62.1732L166.131 68.1649ZM178.267 62.4626C176.61 62.4685 175.271 63.8164 175.277 65.4733C175.283 67.1301 176.631 68.4685 178.288 68.4626L178.267 62.4626ZM190.452 68.0757C192.105 67.9764 193.366 66.5552 193.266 64.9013C193.167 63.2474 191.746 61.9872 190.092 62.0865L190.452 68.0757ZM201.876 61.0484C200.23 61.2394 199.051 62.7284 199.242 64.3742C199.433 66.02 200.922 67.1994 202.567 67.0085L201.876 61.0484ZM214.604 65.282C216.237 65.0034 217.336 63.4535 217.057 61.8202C216.778 60.187 215.228 59.0889 213.595 59.3675L214.604 65.282ZM225.229 57.0758C223.612 57.4364 222.593 59.0397 222.954 60.6568C223.315 62.274 224.918 63.2926 226.535 62.9319L225.229 57.0758ZM238.311 60.012C239.91 59.5764 240.852 57.9274 240.417 56.3288C239.981 54.7302 238.332 53.7874 236.734 54.223L238.311 60.012ZM248.109 50.8585C246.53 51.3614 245.658 53.0489 246.161 54.6276C246.664 56.2063 248.352 57.0783 249.93 56.5754L248.109 50.8585ZM261.394 52.6764C262.953 52.1136 263.76 50.3941 263.197 48.8358C262.634 47.2774 260.915 46.4703 259.356 47.033L261.394 52.6764ZM270.475 42.7993C268.937 43.4145 268.188 45.1603 268.804 46.6987C269.419 48.2371 271.165 48.9855 272.703 48.3703L270.475 42.7993ZM283.86 43.7098C285.379 43.0489 286.075 41.2814 285.414 39.7621C284.753 38.2428 282.986 37.5469 281.467 38.2078L283.86 43.7098ZM292.336 33.3056C290.834 34.0061 290.185 35.7911 290.885 37.2926C291.586 38.7941 293.371 39.4435 294.872 38.743L292.336 33.3056ZM305.75 33.5133C307.235 32.7787 307.843 30.9793 307.109 29.4942C306.374 28.0091 304.575 27.4006 303.09 28.1351L305.75 33.5133ZM313.737 22.7338C312.267 23.4976 311.694 25.3087 312.458 26.779C313.222 28.2493 315.033 28.822 316.503 28.0582L313.737 22.7338ZM327.146 22.4102C328.603 21.6213 329.145 19.8006 328.356 18.3436C327.567 16.8867 325.746 16.3451 324.289 17.134L327.146 22.4102ZM334.757 11.3632C333.312 12.1735 332.797 14.002 333.607 15.4471C334.418 16.8923 336.246 17.4069 337.691 16.5965L334.757 11.3632ZM2.03043 10.6174C3.81489 11.6169 5.58877 12.6029 7.35231 13.5757L10.2503 8.32196C8.49831 7.35557 6.73573 6.37578 4.9623 5.38255L2.03043 10.6174ZM17.9207 19.3112C21.5123 21.2274 25.0613 23.0861 28.5697 24.8876L31.3103 19.5501C27.8311 17.7636 24.3101 15.9195 20.745 14.0175L17.9207 19.3112ZM39.3348 30.297C43.0094 32.102 46.6402 33.8415 50.2297 35.5158L52.7661 30.0783C49.2146 28.4217 45.6201 26.6996 41.98 24.9116L39.3348 30.297ZM61.2319 40.4995C64.9817 42.146 68.6877 43.7185 72.3532 45.2173L74.624 39.6636C71.0079 38.185 67.3491 36.6326 63.6441 35.0058L61.2319 40.4995ZM83.6034 49.6328C87.4398 51.0739 91.2339 52.431 94.9896 53.7047L96.9166 48.0225C93.2246 46.7705 89.4915 45.4352 85.7132 44.016L83.6034 49.6328ZM106.515 57.3864C110.442 58.5616 114.33 59.6423 118.184 60.6289L119.672 54.8164C115.899 53.8504 112.088 52.7913 108.235 51.6383L106.515 57.3864ZM130.016 63.3844C134.03 64.2246 138.012 64.9598 141.966 65.5905L142.911 59.6654C139.055 59.0502 135.168 58.3327 131.245 57.5117L130.016 63.3844ZM154.014 67.1977C158.074 67.6322 162.111 67.9543 166.131 68.1649L166.445 62.1732C162.535 61.9683 158.606 61.6548 154.652 61.2318L154.014 67.1977ZM178.288 68.4626C182.352 68.448 186.404 68.3188 190.452 68.0757L190.092 62.0865C186.157 62.3228 182.217 62.4485 178.267 62.4626L178.288 68.4626ZM202.567 67.0085C206.576 66.5433 210.586 65.9675 214.604 65.282L213.595 59.3675C209.681 60.0353 205.777 60.5959 201.876 61.0484L202.567 67.0085ZM226.535 62.9319C230.445 62.0598 234.369 61.0862 238.311 60.012L236.734 54.223C232.878 55.2735 229.046 56.2246 225.229 57.0758L226.535 62.9319ZM249.93 56.5754C253.727 55.3656 257.547 54.0657 261.394 52.6764L259.356 47.033C255.578 48.3976 251.83 49.6729 248.109 50.8585L249.93 56.5754ZM272.703 48.3703C276.391 46.8954 280.109 45.3416 283.86 43.7098L281.467 38.2078C277.767 39.817 274.105 41.3476 270.475 42.7993L272.703 48.3703ZM294.872 38.743C298.463 37.0679 302.088 35.3245 305.75 33.5133L303.09 28.1351C299.466 29.9272 295.883 31.6508 292.336 33.3056L294.872 38.743ZM316.503 28.0582C320.014 26.2347 323.56 24.3518 327.146 22.4102L324.289 17.134C320.732 19.0603 317.215 20.927 313.737 22.7338L316.503 28.0582ZM337.691 16.5965C339.445 15.6133 341.208 14.6167 342.981 13.6068L340.012 8.39315C338.25 9.39666 336.498 10.3867 334.757 11.3632L337.691 16.5965Z" fill="#00DB93"/>
</svg>
